<svg id="baseline-share-24px" xmlns="http://www.w3.org/2000/svg" width="35" height="35" viewBox="0 0 35 35">
  <path id="Path_12" data-name="Path 12" d="M0,0H35V35H0Z" fill="none"/>
  <path id="Path_13" data-name="Path 13" d="M27.167,23.855a4.79,4.79,0,0,0-3.158,1.2L12.522,18.609a4.906,4.906,0,0,0,.145-1.087,4.906,4.906,0,0,0-.145-1.087l11.358-6.38a4.912,4.912,0,0,0,3.287,1.257A4.741,4.741,0,0,0,32,6.657a4.837,4.837,0,0,0-9.667,0,4.906,4.906,0,0,0,.145,1.087L11.12,14.123a4.912,4.912,0,0,0-3.287-1.257,4.66,4.66,0,1,0,0,9.313,4.912,4.912,0,0,0,3.287-1.257l11.471,6.457a4.228,4.228,0,0,0-.129,1.009,4.708,4.708,0,1,0,4.7-4.532Z" transform="translate(0 0)" fill="#ffa746"/>
</svg>
