<?xml version="1.0" encoding="UTF-8" standalone="no"?>
<svg
   xmlns:dc="http://purl.org/dc/elements/1.1/"
   xmlns:cc="http://creativecommons.org/ns#"
   xmlns:rdf="http://www.w3.org/1999/02/22-rdf-syntax-ns#"
   xmlns:svg="http://www.w3.org/2000/svg"
   xmlns="http://www.w3.org/2000/svg"
   xmlns:sodipodi="http://sodipodi.sourceforge.net/DTD/sodipodi-0.dtd"
   xmlns:inkscape="http://www.inkscape.org/namespaces/inkscape"
   aria-hidden="true"
   focusable="false"
   data-prefix="fas"
   data-icon="book"
   class="svg-inline--fa fa-book fa-w-14"
   role="img"
   viewBox="0 0 24 24"
   version="1.1"
   id="svg4"
   sodipodi:docname="book-solid.svg"
   inkscape:version="1.0.1 (3bc2e813f5, 2020-09-07)"
   width="24"
   height="24">
  <metadata
     id="metadata10">
    <rdf:RDF>
      <cc:Work
         rdf:about="">
        <dc:format>image/svg+xml</dc:format>
        <dc:type
           rdf:resource="http://purl.org/dc/dcmitype/StillImage" />
        <dc:title></dc:title>
      </cc:Work>
    </rdf:RDF>
  </metadata>
  <defs
     id="defs8" />
  <sodipodi:namedview
     pagecolor="#ffffff"
     bordercolor="#666666"
     borderopacity="1"
     objecttolerance="10"
     gridtolerance="10"
     guidetolerance="10"
     inkscape:pageopacity="0"
     inkscape:pageshadow="2"
     inkscape:window-width="1920"
     inkscape:window-height="1057"
     id="namedview6"
     showgrid="false"
     inkscape:zoom="28.822125"
     inkscape:cx="11.894214"
     inkscape:cy="11.547585"
     inkscape:window-x="-8"
     inkscape:window-y="-8"
     inkscape:window-maximized="1"
     inkscape:current-layer="svg4"
     inkscape:document-rotation="0" />
  <path
     fill="currentColor"
     d="M 21.28,15.634375 V 3.375625 C 21.28,2.8903828 20.83146,2.5 20.273929,2.5 H 6.5242857 C 4.3025446,2.5 2.5,4.0688281 2.5,6.0024999 V 17.6775 c 0,1.933672 1.8025446,3.5025 4.0242857,3.5025 H 20.273929 C 20.83146,21.18 21.28,20.789617 21.28,20.304375 v -0.58375 c 0,-0.273633 -0.146719,-0.521727 -0.373085,-0.682258 -0.176063,-0.56186 -0.176063,-2.163523 0,-2.725383 C 21.133281,16.156102 21.28,15.908008 21.28,15.634375 Z M 7.8657143,7.3889062 C 7.8657143,7.2685076 7.9788973,7.17 8.1172321,7.17 h 8.8869639 c 0.138335,0 0.251518,0.098508 0.251518,0.2189062 v 0.7296874 c 0,0.1203986 -0.113183,0.2189062 -0.251518,0.2189062 H 8.1172321 c -0.1383348,0 -0.2515178,-0.098508 -0.2515178,-0.2189062 z m 0,2.3350001 C 7.8657143,9.6035073 7.9788973,9.505 8.1172321,9.505 h 8.8869639 c 0.138335,0 0.251518,0.098508 0.251518,0.2189063 v 0.7296867 c 0,0.120399 -0.113183,0.218907 -0.251518,0.218907 H 8.1172321 c -0.1383348,0 -0.2515178,-0.09851 -0.2515178,-0.218907 z M 18.488152,18.845 H 6.5242857 c -0.7419776,0 -1.3414286,-0.521727 -1.3414286,-1.1675 0,-0.642125 0.6036429,-1.1675 1.3414286,-1.1675 H 18.488152 c -0.07965,0.623882 -0.07965,1.711118 0,2.335 z"
     id="path2"
     style="opacity:0.5;fill:#ffffff;fill-opacity:1;stroke-width:0.0391077" />
</svg>
