<?xml version="1.0" encoding="UTF-8" standalone="no"?>
<svg
   xmlns:dc="http://purl.org/dc/elements/1.1/"
   xmlns:cc="http://creativecommons.org/ns#"
   xmlns:rdf="http://www.w3.org/1999/02/22-rdf-syntax-ns#"
   xmlns:svg="http://www.w3.org/2000/svg"
   xmlns="http://www.w3.org/2000/svg"
   xmlns:sodipodi="http://sodipodi.sourceforge.net/DTD/sodipodi-0.dtd"
   xmlns:inkscape="http://www.inkscape.org/namespaces/inkscape"
   aria-hidden="true"
   focusable="false"
   data-prefix="fas"
   data-icon="envelope"
   class="svg-inline--fa fa-envelope fa-w-16"
   role="img"
   viewBox="0 0 24 24"
   version="1.1"
   id="svg4"
   sodipodi:docname="envelope-solid.svg"
   inkscape:version="1.0.1 (3bc2e813f5, 2020-09-07)"
   width="24"
   height="24">
  <metadata
     id="metadata10">
    <rdf:RDF>
      <cc:Work
         rdf:about="">
        <dc:format>image/svg+xml</dc:format>
        <dc:type
           rdf:resource="http://purl.org/dc/dcmitype/StillImage" />
        <dc:title></dc:title>
      </cc:Work>
    </rdf:RDF>
  </metadata>
  <defs
     id="defs8" />
  <sodipodi:namedview
     pagecolor="#ffffff"
     bordercolor="#666666"
     borderopacity="1"
     objecttolerance="10"
     gridtolerance="10"
     guidetolerance="10"
     inkscape:pageopacity="0"
     inkscape:pageshadow="2"
     inkscape:window-width="1920"
     inkscape:window-height="1057"
     id="namedview6"
     showgrid="false"
     inkscape:zoom="22.971405"
     inkscape:cx="12.553619"
     inkscape:cy="11.926394"
     inkscape:window-x="-8"
     inkscape:window-y="-8"
     inkscape:window-maximized="1"
     inkscape:current-layer="svg4" />
  <path
     style="fill:#fd971f;fill-opacity:1;stroke-width:0.141277;stroke-miterlimit:4;stroke-dasharray:none"
     d="m 12,13.908375 c 1.0875,0.01782 2.653125,-1.301267 3.440625,-1.844948 C 21.660938,7.7719167 22.134374,7.3975798 23.56875,6.3280447 23.840625,6.127507 24,5.815559 24,5.4857859 V 4.6390703 C 24,3.4581249 22.992188,2.5 21.75,2.5 H 2.2500001 C 1.0078126,2.5 0,3.4581249 0,4.6390703 V 5.4857859 C 0,5.815559 0.159375,6.1230502 0.43125,6.3280447 1.8656251,7.3931231 2.3390626,7.7719167 8.5593751,12.063427 9.3468751,12.607108 10.9125,13.926201 12,13.908375 Z"
     id="path851" />
  <path
     style="fill:#fd971f;fill-opacity:1;stroke-width:0.142952;stroke-miterlimit:4;stroke-dasharray:none"
     d="M 23.545312,10.328301 C 23.728125,10.186857 24,10.319177 24,10.542748 v 9.330736 c 0,1.209117 -1.007812,2.190099 -2.25,2.190099 H 2.2500001 C 1.0078126,22.063583 0,21.082601 0,19.873484 V 10.54731 c 0,-0.228135 0.2671875,-0.35589 0.4546875,-0.214446 1.05,0.793911 2.4421875,1.802269 7.2234375,5.183235 0.9890621,0.702656 2.657812,2.180974 4.321875,2.171849 1.673438,0.01369 3.375001,-1.496568 4.326562,-2.171849 4.78125,-3.380966 6.16875,-4.393887 7.21875,-5.187798 z"
     id="path2" />
</svg>
