<svg xmlns="http://www.w3.org/2000/svg" width="35" height="35" viewBox="0 0 35 35">
  <defs>
    <style>
      .cls-1 {
        fill: #ffa746;
      }
    </style>
  </defs>
  <path id="icons8-linkedin" class="cls-1" d="M34.111,3H6.889A3.888,3.888,0,0,0,3,6.889V34.111A3.888,3.888,0,0,0,6.889,38H34.111A3.888,3.888,0,0,0,38,34.111V6.889A3.888,3.888,0,0,0,34.111,3ZM14.667,30.222H9.761V16.611h4.906ZM12.127,14.116a2.324,2.324,0,0,1-2.5-2.333A2.377,2.377,0,0,1,12.293,9.45a2.324,2.324,0,0,1,2.5,2.333A2.377,2.377,0,0,1,12.127,14.116ZM32.167,30.222H27.418V22.783c0-2.057-1.266-2.532-1.74-2.532s-2.057.317-2.057,2.532v7.439H18.715V16.611h4.906v1.9c.632-1.108,1.9-1.9,4.272-1.9s4.274,1.9,4.274,6.172Z" transform="translate(-3 -3)"/>
</svg>
