<svg xmlns="http://www.w3.org/2000/svg" width="35" height="29.75" viewBox="0 0 35 29.75">
  <defs>
    <style>
      .cls-1 {
        fill: #ffa746;
      }
    </style>
  </defs>
  <g id="icons8-octocat" transform="translate(0 0)">
    <path id="Path_21" data-name="Path 21" class="cls-1" d="M5.609,4a9.429,9.429,0,0,0-.93,4.375,6.378,6.378,0,0,0,.711,3.336A12.479,12.479,0,0,0,2,20.68c0,9.789,6.173,13.07,17.5,13.07S37,30.469,37,20.68A12.781,12.781,0,0,0,33.774,11.6,10.6,10.6,0,0,0,33.445,4c-4.177,0-7.7,3.22-7.82,3.336A28.412,28.412,0,0,0,19.5,6.68a26.322,26.322,0,0,0-6.289.766A11.62,11.62,0,0,0,5.609,4ZM25.133,18a8.835,8.835,0,0,1,2.9.383,5.7,5.7,0,0,1,3.719,5.523C31.743,30.845,28.243,32,19.281,32,12.616,32,7.2,30.749,7.2,24.125a6.4,6.4,0,0,1,2.242-4.867c2.044-1.955,5.264-.984,9.844-.984C21.359,18.274,23.376,18.02,25.133,18ZM12.5,21.5c-.964,0-1.75,1.176-1.75,2.625s.786,2.625,1.75,2.625,1.75-1.176,1.75-2.625S13.464,21.5,12.5,21.5Zm14,0c-.964,0-1.75,1.176-1.75,2.625s.786,2.625,1.75,2.625,1.75-1.176,1.75-2.625S27.464,21.5,26.5,21.5Z" transform="translate(-2 -4)"/>
  </g>
</svg>
