<svg xmlns="http://www.w3.org/2000/svg" width="35" height="35" viewBox="0 0 35 35">
  <defs>
    <style>
      .cls-1 {
        fill: #ffa746;
      }
    </style>
  </defs>
  <path id="icons8-twitter" class="cls-1" d="M34.111,3H6.889A3.888,3.888,0,0,0,3,6.889V34.111A3.888,3.888,0,0,0,6.889,38H34.111A3.888,3.888,0,0,0,38,34.111V6.889A3.888,3.888,0,0,0,34.111,3ZM30.319,15.666v.667A13.584,13.584,0,0,1,16.652,30a14,14,0,0,1-7.332-2.166h1.167a10.78,10.78,0,0,0,6-2,4.86,4.86,0,0,1-4.5-3.333,7.281,7.281,0,0,1,.834.167,3.661,3.661,0,0,0,1.334-.167,4.816,4.816,0,0,1-3.832-4.667,8.316,8.316,0,0,0,2.166.667,5.461,5.461,0,0,1-2.166-4.167A3.828,3.828,0,0,1,10.99,12a13.528,13.528,0,0,0,9.833,5c0-.332-.167-.667-.167-1.167A4.838,4.838,0,0,1,25.489,11a4.541,4.541,0,0,1,3.5,1.5,8.091,8.091,0,0,0,3-1.167A4.872,4.872,0,0,1,29.824,14a9.117,9.117,0,0,0,2.833-.834A11.256,11.256,0,0,1,30.319,15.666Z" transform="translate(-3 -3)"/>
</svg>
