<svg xmlns="http://www.w3.org/2000/svg" width="35" height="35" viewBox="0 0 35 35">
  <defs>
    <style>
      .cls-1 {
        fill: #ffa746;
      }
    </style>
  </defs>
  <path id="icons8-facebook" class="cls-1" d="M34.111,3H6.889A3.888,3.888,0,0,0,3,6.889V34.111A3.888,3.888,0,0,0,6.889,38H21.707V24.465H17.152v-5.3h4.556v-3.9c0-4.519,2.763-6.982,6.8-6.982a38.924,38.924,0,0,1,4.068.2v4.725H29.794c-2.2,0-2.625,1.038-2.625,2.571v3.374h5.25l-.682,5.3h-4.6V38h6.973A3.888,3.888,0,0,0,38,34.111V6.889A3.888,3.888,0,0,0,34.111,3Z" transform="translate(-3 -3)"/>
</svg>
