<svg xmlns="http://www.w3.org/2000/svg" width="35" height="28" viewBox="0 0 35 28">
  <defs>
    <style>
      .cls-1 {
        fill: #ffa746;
      }
    </style>
  </defs>
  <path id="icons8-play-button" class="cls-1" d="M36.269,7.826a4.385,4.385,0,0,0-3.094-3.094C30.444,4,19.5,4,19.5,4S8.556,4,5.826,4.732A4.385,4.385,0,0,0,2.731,7.826C2,10.556,2,18,2,18s0,7.444.732,10.174a4.385,4.385,0,0,0,3.094,3.094C8.556,32,19.5,32,19.5,32s10.944,0,13.675-.732a4.382,4.382,0,0,0,3.094-3.094C37,25.444,37,18,37,18S37,10.556,36.269,7.826ZM16,24.062V11.938L26.5,18Z" transform="translate(-2 -4)"/>
</svg>
